<svg xmlns="http://www.w3.org/2000/svg" xmlns:xlink="http://www.w3.org/1999/xlink" width="500" height="500" class="logo-svg" viewBox="0 0 500 500"><defs><linearGradient id="f" gradientTransform="matrix(-1 0 0 1 66.381 -.932)"><stop offset="0" style="stop-color:#fff;stop-opacity:1"/></linearGradient><linearGradient id="d"><stop offset="0" style="stop-color:#97ebf6;stop-opacity:1"/></linearGradient><linearGradient id="e" gradientTransform="matrix(-1 0 0 1 66.381 -.932)"><stop offset="0" style="stop-color:#178391;stop-opacity:1"/></linearGradient><linearGradient id="h"><stop offset="0" style="stop-color:#59c1ce;stop-opacity:1"/></linearGradient><linearGradient id="i"><stop offset="0" style="stop-color:#97ebf6;stop-opacity:1"/></linearGradient><linearGradient id="j"><stop offset="0" style="stop-color:#036d7a;stop-opacity:1"/></linearGradient><linearGradient id="a" x1="17.508" x2="18.446" y1="18.088" y2="18.088" gradientTransform="scale(.80457 1.2429)" gradientUnits="userSpaceOnUse" spreadMethod="pad"><stop offset=".01" stop-color="#97ebf6"/><stop offset="100%" stop-color="#59c1ce"/></linearGradient><linearGradient xlink:href="#a" id="g" x1="17.508" x2="18.446" y1="18.088" y2="18.088" gradientTransform="scale(.80457 1.2429)" gradientUnits="userSpaceOnUse" spreadMethod="pad"><stop offset="0%" stop-color="#97ebf6"/><stop offset="100%" stop-color="#59c1ce"/></linearGradient><circle id="b" cx="50" cy="50" r="50"/></defs><g style="display:inline;fill:none;fill-rule:evenodd"><g style="display:inline" transform="scale(5)"><mask id="c" fill="#fff"><use xlink:href="#b" width="100%" height="100%"/></mask><g mask="url(#c)"><g stroke="#000" stroke-linecap="round" stroke-linejoin="round" stroke-miterlimit="10" stroke-width="6" style="display:inline;fill:#97ebf6;fill-opacity:1;fill-rule:evenodd;stroke:#178391;stroke-width:6.32058;stroke-dasharray:none;stroke-opacity:1"><path d="M55.17 564.844c-9.854 17.521 15.9 31.951 29.25 19.801 10.908-9.928 19.518-18.348 38.256-21.098-14.35-5.906-27-13.281-37.752-21.871-13.117 5.129-23.736 12.47-29.754 23.168" style="display:inline;fill:url(#d);fill-opacity:1;stroke:url(#e);stroke-width:6.32058;stroke-dasharray:none;stroke-opacity:1" transform="translate(16.003 19.96)scale(.15821)"/><path d="M60.871 584.57c.9-4.951 3.6-13.275 11.7-20.476" style="fill:url(#d);fill-opacity:1;stroke:url(#e);stroke-width:6.32058;stroke-dasharray:none;stroke-opacity:1" transform="translate(16.003 19.96)scale(.15821)"/></g><g stroke="#000" stroke-linecap="round" stroke-linejoin="round" stroke-miterlimit="10" stroke-width="6" style="display:inline;fill:#97ebf6;fill-opacity:1;fill-rule:evenodd;stroke:#178391;stroke-width:6.32058;stroke-dasharray:none;stroke-opacity:1"><path d="M353.745 579.846c11.037 14.283 38.46 1.312 30.443-17.121-5.267-12.111-15.218-22.156-27.677-28.195-8.158 7.618-17.849 14.689-29.308 20.867 12.68 6.005 18.893 14.549 26.542 24.449" style="fill:url(#d);fill-opacity:1;stroke:url(#e);stroke-width:6.32058;stroke-dasharray:none;stroke-opacity:1" transform="translate(16.003 19.96)scale(.15821)"/><path d="M376.05 582.961c-.026-5.031-1.304-15.266-8.866-22.195" style="fill:url(#d);fill-opacity:1;stroke:url(#e);stroke-width:6.32058;stroke-dasharray:none;stroke-opacity:1" transform="translate(16.003 19.96)scale(.15821)"/></g><g stroke="#178391" style="display:inline;fill-rule:nonzero;stroke-width:.9;stroke-dasharray:none"><path fill="#97ebf5" stroke-width="1.5" d="M.818 50.893c.135 2.79 2.91 1.498 4.17.627 1.193-.828 1.542-.14 1.647-1.773.068-1.074.192-2.147.13-3.225-1.804-.164-3.768.267-5.248 1.346-.762.556-2.192 2.33-.7 3.025" style="fill:url(#d);stroke:url(#e);stroke-width:.9;stroke-dasharray:none" transform="translate(16 20)"/><path fill="#c6b198" d="M.818 50.893c.238-.134 1.268-.676 1.43-1" style="fill:none;stroke:url(#e);stroke-width:.9;stroke-dasharray:none" transform="translate(16 20)"/></g><g stroke="#178391" style="display:inline;fill-rule:nonzero;stroke-width:.9;stroke-dasharray:none"><path fill="#97ebf5" stroke-width="1.5" d="M68.2 50.54c-.133 2.788-2.91 1.497-4.168.626-1.194-.828-1.543-.14-1.648-1.773-.068-1.074-.192-2.147-.13-3.225 1.804-.164 3.768.267 5.248 1.346.762.556 2.192 2.33.7 3.025" style="fill:url(#d);stroke:url(#e);stroke-width:.9;stroke-linejoin:round;stroke-dasharray:none" transform="translate(16 20)"/><path fill="#c6b198" d="M68.2 50.54c-.403-.152-1.676-.636-1.95-1.002" style="display:inline;fill:none;stroke:url(#e);stroke-width:.9;stroke-linecap:butt;stroke-dasharray:none" transform="translate(16 20)"/></g><g style="display:inline;fill:#97ebf5;fill-opacity:1;fill-rule:evenodd;stroke-width:1.00048;stroke-dasharray:none"><path d="M54.51 5.662c8.423-5.934 16.034 7.455 6.246 10.823z" style="fill:url(#d);fill-opacity:1;stroke:url(#e);stroke-width:1.50073;stroke-dasharray:none;stroke-opacity:1" transform="translate(16 20)"/><path d="M59.538 12.51c1.404-.745 2.434-1.757 1.575-3.386-.795-1.508-2.272-1.344-3.676-.6z" style="fill:url(#e);fill-opacity:1;stroke:none;stroke-width:1.00048;stroke-dasharray:none" transform="translate(16 20)"/><path d="M7.235 17.676c-10.64-3-2.73-16.58 5.816-10.995L7.236 17.677Z" style="display:inline;fill:url(#d);fill-opacity:1;fill-rule:evenodd;stroke:url(#e);stroke-width:1.50073;stroke-dasharray:none;stroke-opacity:1" transform="translate(16 20)"/><path d="M7.68 13.926c-1.405-.745-2.435-1.757-1.576-3.385.795-1.507 2.272-1.344 3.676-.6l-2.1 3.986z" style="fill:url(#e);fill-opacity:1;stroke:none;stroke-width:1.00048;stroke-dasharray:none" transform="translate(16 20)"/></g><path fill="#97ebf6" stroke="#178391" stroke-width="1.5" d="M79.011 67.897c.613 10.442 1.97 22.506-2.86 32.184-5.08 10.182-17.775 12.743-28.235 12.368-8.215-.295-18.14-2.983-22.776-10.513-5.44-8.834-2.866-21.968-2.47-31.798.467-11.643-3.145-23.32.668-34.714 3.956-11.82 14.624-14.49 26.105-15.4 10.653 0 20.64 1.527 25.845 11.794 4.672 11.507 3.01 23.916 3.723 36.079z" style="display:inline;fill:url(#d);fill-rule:nonzero;stroke:url(#e)"/><g style="fill-rule:nonzero"><path d="M30.057 30.714c-.008 1.45-.215 3.353.068 4.62.235.627 1.12.856 1.802.927.877.091 1.675-.848 1.85-1.383l.149-5.155z" style="display:inline;fill:url(#f);fill-opacity:1;fill-rule:evenodd;stroke:url(#e);stroke-linecap:round;stroke-linejoin:round;stroke-opacity:1" transform="translate(16 20)"/><path d="M37.517 30.75c.008 1.45.338 3.353.055 4.62-.234.627-1.12.856-1.802.927-.877.091-1.675-.848-1.85-1.383-.207-1.3.042-3.542.14-5.227z" style="display:inline;fill:url(#f);fill-opacity:1;fill-rule:evenodd;stroke:url(#e);stroke-linecap:round;stroke-linejoin:round;stroke-opacity:1" transform="translate(16 20)"/></g><path fill="#97ebf5" stroke="#178391" stroke-width="1.2" d="M46.43 45.247c-2.13.182-3.87 2.72-2.762 4.728 1.465 2.66 4.736-.235 6.773.036 2.345.05 4.266 2.488 6.15.442 2.093-2.275-.903-4.492-3.244-5.482l-6.917.277z" style="display:inline;fill:url(#d);fill-rule:nonzero;stroke:url(#e);stroke-width:1.19958;stroke-dasharray:none"/><path fill="#168391" d="M46.16 45.136c-.156-3.698 6.873-4.16 7.703-1.065.828 3.09-7.356 3.807-7.702 1.066-.275-2.19 0 0 0 0z" style="display:inline;fill:url(#e);fill-rule:nonzero;stroke:none"/><g style="display:inline;fill:none;fill-rule:nonzero"><path d="M30.998 15.655c-.7-11.665-19.545-9.362-17.447 2.315 2.406 9.972 18.031 7.425 17.447-2.315" style="display:inline;fill:url(#f);fill-opacity:1;fill-rule:evenodd;stroke:url(#e);stroke-linecap:round;stroke-linejoin:round;stroke-opacity:1" transform="translate(16 20)"/><g style="display:inline;fill:none;fill-rule:nonzero" transform="translate(16 20)"><ellipse cx="18.284" cy="16.588" fill="#178391" rx="2.617" ry="2.843" style="display:inline;fill:url(#e);stroke:none"/><circle cx="19.475" cy="17.23" r="1" fill="#fff" style="display:inline;fill:url(#f);stroke:none"/></g><path d="M35.383 14.723c.7-11.665 19.545-9.362 17.447 2.315-2.406 9.972-18.03 7.425-17.447-2.315" style="display:inline;fill:url(#f);fill-opacity:1;fill-rule:evenodd;stroke:url(#e);stroke-linecap:round;stroke-linejoin:round;stroke-opacity:1" transform="translate(16 20)"/><g style="display:inline;fill:none;fill-rule:nonzero" transform="translate(16 20)"><ellipse cx="40.308" cy="15.88" fill="#178391" rx="2.573" ry="2.843" style="fill:url(#e);stroke:none"/><circle cx="41.478" cy="16.522" r="1" fill="#fff" style="fill:url(#f);stroke:none"/></g></g></g></g><g stroke="#036d7a" style="display:inline"><g fill="url(#g)" style="display:inline" transform="matrix(5 0 0 5 60 230)"><path stroke="none" d="M29 3.742v29.07L14.444 45V-.007C16.78 2.221 21.876 3.77 27.682 3.77q.666 0 1.318-.027" style="display:inline;fill:url(#h);fill-opacity:1;fill-rule:evenodd;stroke:none"/><path stroke="none" d="M14.444 45 0 32.811V3.74q.678.029 1.374.029c5.806 0 10.732-1.547 13.07-3.776z" style="display:inline;fill:url(#i);fill-opacity:1;fill-rule:evenodd;stroke:none"/><path stroke-linecap="square" d="M29 3.742v29.07L14.444 45 0 32.811V3.74q.678.029 1.374.029c5.806 0 10.732-1.547 13.07-3.776C16.78 2.221 21.876 3.77 27.682 3.77q.666 0 1.318-.027" style="display:inline;fill:none;fill-rule:evenodd;stroke:url(#j);stroke-linecap:round;stroke-linejoin:round"/></g><g style="display:inline" transform="matrix(5 0 0 5 90 295)"><g stroke-linecap="square" style="display:inline;stroke-linecap:round;stroke-linejoin:round"><g style="stroke-linecap:round;stroke-linejoin:round"><path d="m4.78 12.316-2.97.753-1.184 1.708" style="display:inline;fill:none;fill-rule:evenodd;stroke:url(#j);stroke-linecap:round;stroke-linejoin:round" transform="matrix(-1 0 0 1 16.603 0)"/><path d="m12.461 8.034 3.064-.013 1.573 1.358" style="display:inline;fill:none;fill-rule:evenodd;stroke:url(#j);stroke-linecap:round;stroke-linejoin:round"/><path d="m4.777 3.692-2.97-.753L.623 1.23" style="fill:none;stroke:url(#j);stroke-linecap:round;stroke-linejoin:round" transform="matrix(-1 0 0 1 16.603 0)"/></g><g style="stroke-linecap:round;stroke-linejoin:round"><path d="m4.803 12.347-2.97.753-1.184 1.708" style="display:inline;fill:none;fill-rule:evenodd;stroke:url(#j);stroke-linecap:round;stroke-linejoin:round"/><path d="m12.448 8.029 3.064-.008 1.571 1.36" style="display:inline;fill:none;fill-rule:evenodd;stroke:url(#j);stroke-linecap:round;stroke-linejoin:round" transform="matrix(-1 0 0 1 16.603 0)"/><path d="m4.79 3.692-2.97-.753L.636 1.23" style="fill:none;stroke:url(#j);stroke-linecap:round;stroke-linejoin:round"/></g></g><path stroke="none" d="M10.556 1.19a3.74 3.74 0 0 1-2.248.757v14.152A4.154 8.1 0 0 0 12.462 8a4.154 8.1 0 0 0-1.906-6.81" style="display:inline;fill:url(#i);fill-opacity:1;fill-rule:evenodd;stroke:none"/><path stroke="none" d="M8.308 16.1V1.946a3.73 3.73 0 0 1-2.24-.749A4.154 8.1 0 0 0 4.154 8a4.154 8.1 0 0 0 4.154 8.1" style="display:inline;fill:url(#h);fill-opacity:1;fill-rule:evenodd;stroke:none"/><ellipse cx="8.308" cy="8" rx="4.154" ry="8.099" style="display:inline;fill:none;fill-rule:evenodd;stroke:url(#j)"/><path stroke-linecap="square" d="M8.308 1.947v14.152" style="display:inline;fill:none;stroke:url(#j);stroke-linecap:butt"/><path d="M8.308-.1a4.154 8.1 0 0 0-2.24 1.298 3.73 3.73 0 0 0 2.24.749c.88 0 1.665-.314 2.248-.757A4.154 8.1 0 0 0 8.308-.1" style="display:inline;fill:url(#i);fill-opacity:1;stroke:url(#j);stroke-linecap:round;stroke-linejoin:round"/></g></g></g></svg>